<?xml version="1.0" encoding="UTF-8"?>
<svg enable-background="new 0 0 245 216" viewBox="0 0 245 216" xmlns="http://www.w3.org/2000/svg">
 <path d="m59.667 155.67-0.667 14.667 10.667 5.666 147.33 0.334 9 4s2 0 3-2-0.666-4.667-0.666-4.667l-11.334-3-145.33-1.333-12-13.667z" fill="#646464" stroke="#000"/>
 <path d="m11.701 10.388s6.529-7.56 15.808-7.56 36.426 30.928 36.426 30.928l-8.935 8.935s-15.808-32.646-27.148-32.646-11.34 4.124-11.34 4.124l-4.811-3.781z" fill="#646464" stroke="#000"/>
 <path d="m18.292 13.387a7.809 7.809 0 1 0 -15.618 0 7.809 7.809 0 1 0 15.618 0" fill="#970000" stroke="#000"/>
 <path d="m55.5,159.115-.844,17.869h5.499l4.811-17.525 121.651.045 3.091,17.824h5.842l.344-18.252z" fill="#646464" stroke="#000"/>
 <path d="m63.966 195.96a17.182 17.182 0 1 0 -34.364 0 17.182 17.182 0 1 0 34.364 0" stroke="#000"/>
 <path d="m60.048 195.96a13.058 13.058 0 1 0 -26.116 0 13.058 13.058 0 1 0 26.116 0" fill="#0095ff" stroke="#000" stroke-width=".76"/>
 <path d="m54.656 177.74h5.499l-1.375 13.402-9.966 9.966s-4.811-1e-3 -6.529-2.063 0.344-7.216 0.344-7.216l9.278-6.529 2.749-7.56z" fill="#646464" stroke="#000"/>
 <path d="m199.02 195.96a17.183 17.183 0 1 0 -34.366 0 17.183 17.183 0 1 0 34.366 0" stroke="#000"/>
 <path d="m195.1 195.96a13.058 13.058 0 1 0 -26.116 0 13.058 13.058 0 1 0 26.116 0" fill="#0095ff" stroke="#000" stroke-width=".76"/>
 <path d="m189.71 177.74h5.499l-1.374 13.402-9.967 9.966s-4.811-1e-3 -6.529-2.063 0.344-7.216 0.344-7.216l9.279-6.529 2.748-7.56z" fill="#646464" stroke="#000"/>
 <path d="m55.344 33.756h9.278v125.77h-9.278z" fill="#646464" stroke="#646464"/>
 <path d="m200.81 154.38h-145.47v5.154h143.06z" fill="#646464" stroke="#646464"/>
 <path d="m64.622 33.756-1.031 4.467 178.01 9.279 2.062-4.468z" fill="#646464" stroke="#646464"/>
 <path d="m243.66 43.034-44.674 116.5h-5.841l45.36-115.46z" fill="#646464" stroke="#646464"/>
 <path d="m91.167 38.667 0.666 117.33" fill="#646464" stroke="#646464" stroke-width="10"/>
 <path d="m118.17 39.334 0.666 116.33" fill="#646464" stroke="#646464" stroke-width="10"/>
 <path d="m144.5 39.999 0.666 116.33" fill="#646464" stroke="#646464" stroke-width="10"/>
 <path d="m171.83 39.999 0.666 116.33" fill="#646464" stroke="#646464" stroke-width="10"/>
 <path d="m59.667 60.667 173 3.667" fill="#646464" stroke="#646464" stroke-width="10"/>
 <path d="m60.333 95.667 158.33 5.666" fill="#646464" stroke="#646464" stroke-width="10.064"/>
 <path d="m60 133 144.67 4" fill="none" stroke="#646464" stroke-width="10"/>
 <path d="m199.33 44.334-0.334 92.333" fill="#646464" stroke="#646464" stroke-width="10.064"/>
 <path d="m55 42.333 0.344 117.2h143.64l44.674-116.5-180.66-10.367" fill="none" stroke="#000"/>
</svg>
